<?xml version="1.0" standalone="no"?>
<!DOCTYPE svg PUBLIC "-//W3C//DTD SVG 20010904//EN"
 "http://www.w3.org/TR/2001/REC-SVG-20010904/DTD/svg10.dtd">
<svg version="1.0" xmlns="http://www.w3.org/2000/svg"
 width="190.000000pt" height="190.000000pt" viewBox="0 0 190.000000 190.000000"
 preserveAspectRatio="xMidYMid meet">

<g transform="translate(0.000000,190.000000) scale(0.100000,-0.100000)"
fill="#000000" stroke="none">
<path d="M908 1893 c23 -2 61 -2 85 0 23 2 4 4 -43 4 -47 0 -66 -2 -42 -4z"/>
<path d="M798 1883 c7 -3 16 -2 19 1 4 3 -2 6 -13 5 -11 0 -14 -3 -6 -6z"/>
<path d="M1088 1883 c7 -3 16 -2 19 1 4 3 -2 6 -13 5 -11 0 -14 -3 -6 -6z"/>
<path d="M748 1873 c7 -3 16 -2 19 1 4 3 -2 6 -13 5 -11 0 -14 -3 -6 -6z"/>
<path d="M1138 1873 c7 -3 16 -2 19 1 4 3 -2 6 -13 5 -11 0 -14 -3 -6 -6z"/>
<path d="M815 1850 c-353 -56 -654 -330 -747 -680 -31 -120 -31 -319 1 -440
62 -237 231 -455 444 -574 155 -87 365 -129 533 -108 432 55 755 380 806 811
34 295 -97 605 -337 797 -97 78 -231 146 -345 174 -97 25 -264 34 -355 20z
m346 -29 c262 -67 473 -237 592 -476 174 -348 99 -771 -184 -1041 -362 -344
-921 -332 -1265 28 -279 291 -330 727 -126 1073 63 107 201 246 310 312 88 54
235 107 337 123 86 13 247 4 336 -19z"/>
<path d="M948 1803 c-6 -7 -28 -18 -50 -25 -25 -7 -37 -16 -34 -24 3 -8 0 -17
-7 -21 -12 -8 -17 -9 -37 -12 -5 0 -10 -6 -10 -12 0 -6 7 -8 16 -5 8 3 13 2
10 -3 -7 -11 41 -24 56 -15 7 4 8 3 4 -4 -4 -7 -1 -12 8 -12 8 0 16 5 18 12 3
8 11 9 24 3 20 -9 30 -12 52 -14 6 0 12 -6 12 -12 0 -12 -40 -8 -74 6 -12 5
-17 5 -13 -1 8 -13 -86 -12 -95 1 -4 5 -10 6 -14 2 -14 -14 11 -26 66 -31 30
-2 71 -11 91 -18 34 -13 35 -14 23 -43 -7 -17 -10 -34 -7 -39 7 -10 -38 3 -52
16 -6 6 -3 7 10 3 12 -4 8 1 -10 14 -35 24 -72 30 -41 6 17 -13 18 -15 3 -15
-9 0 -17 -4 -17 -9 0 -5 -25 -8 -55 -5 -58 5 -70 -5 -32 -25 19 -10 17 -11
-18 -6 l-40 6 35 -23 c34 -24 127 -37 115 -17 -4 5 1 9 9 9 9 0 16 -4 16 -9 0
-5 13 -14 29 -19 52 -18 71 -46 71 -102 0 -46 -4 -55 -45 -99 -38 -41 -47 -58
-55 -107 -6 -33 -10 -71 -10 -86 0 -26 3 -28 40 -28 l40 0 0 81 c0 63 4 87 19
107 10 15 21 36 25 47 3 12 31 41 60 65 30 25 59 57 64 71 6 14 24 31 41 39
19 7 34 22 37 36 3 13 14 24 23 24 14 0 14 2 1 10 -13 8 -12 10 5 11 11 1 25
0 30 -1 6 -1 34 1 64 5 38 5 50 10 40 16 -11 7 -9 10 9 15 18 5 20 9 10 15 -7
5 -22 6 -33 2 -18 -5 -18 -4 -6 11 13 16 11 17 -37 11 -53 -6 -80 8 -36 19 27
7 28 31 1 31 -8 0 -18 3 -21 6 -11 10 -88 -2 -111 -17 -13 -8 -27 -14 -31 -13
-32 5 -84 -3 -81 -13 1 -6 -6 -13 -15 -16 -12 -2 -16 3 -15 17 1 12 4 21 8 21
4 0 5 9 2 20 -6 22 -1 23 93 20 38 -1 56 4 75 20 l24 21 -24 -7 c-16 -4 -21
-3 -16 5 5 8 -8 10 -44 7 -31 -3 -49 -1 -46 5 4 5 16 9 29 9 12 0 26 3 29 6 8
9 -37 44 -56 44 -9 0 -18 4 -22 10 -3 5 -12 7 -20 3 -8 -3 -23 -2 -32 2 -30
12 -64 11 -75 -2z m37 -52 c3 -5 1 -12 -5 -16 -5 -3 -10 1 -10 9 0 18 6 21 15
7z m35 -56 c0 -8 -4 -15 -9 -15 -13 0 -22 16 -14 24 11 11 23 6 23 -9z m40 5
c0 -5 -7 -10 -15 -10 -8 0 -15 5 -15 10 0 6 7 10 15 10 8 0 15 -4 15 -10z
m-85 -10 c3 -5 1 -10 -4 -10 -6 0 -11 5 -11 10 0 6 2 10 4 10 3 0 8 -4 11 -10z
m30 -61 c15 -15 -28 -10 -55 6 -25 14 -25 14 10 8 19 -3 39 -10 45 -14z m245
-21 c0 -5 -9 -8 -19 -8 -11 0 -22 3 -24 8 -3 4 6 7 19 7 13 0 24 -3 24 -7z
m-125 -19 c3 -4 -7 -7 -22 -5 -32 3 -83 -22 -83 -41 0 -7 11 -13 25 -13 20 0
25 -5 25 -27 0 -14 11 -41 25 -59 14 -18 25 -37 25 -42 0 -6 -18 -25 -40 -42
-43 -34 -44 -33 -53 32 -7 46 1 78 19 78 8 0 14 6 14 14 0 18 -26 39 -39 32
-12 -8 -21 17 -14 44 9 36 100 59 118 29z m167 -31 c-7 -7 -12 -8 -12 -2 0 6
3 14 7 17 3 4 9 5 12 2 2 -3 -1 -11 -7 -17z m-116 -14 c-3 -9 -6 -18 -6 -20 0
-2 -7 -4 -15 -4 -8 0 -15 5 -15 10 0 6 7 10 16 10 8 0 12 5 9 10 -3 6 -1 10 5
10 7 0 9 -7 6 -16z m40 -26 c-8 -51 -29 -70 -34 -31 -2 15 1 29 7 31 6 2 9 8
5 13 -7 11 4 29 18 29 7 0 8 -15 4 -42z m-78 -4 c27 -8 31 -54 6 -75 -14 -11
-19 -9 -35 11 -19 26 -24 51 -12 63 8 8 12 8 41 1z m-190 -32 c2 -7 -2 -10
-12 -6 -9 3 -16 11 -16 16 0 13 23 5 28 -10z m56 -14 c15 -24 -1 -35 -21 -15
-14 14 -15 17 -3 18 10 0 8 4 -5 10 -18 8 -18 9 -1 6 10 -1 24 -10 30 -19z"/>
<path d="M1084 1658 c-7 -11 48 -10 66 2 11 7 5 9 -23 8 -21 -1 -40 -5 -43
-10z"/>
<path d="M836 1571 c-3 -5 3 -11 14 -14 24 -6 36 8 14 17 -20 8 -22 8 -28 -3z"/>
<path d="M1292 1503 c12 -15 56 -17 77 -4 9 6 -3 10 -37 12 -39 3 -48 1 -40
-8z"/>
<path d="M200 945 c0 -51 3 -65 15 -65 9 0 15 9 15 25 0 18 5 25 20 25 15 0
20 -7 20 -25 0 -16 6 -25 15 -25 12 0 15 14 15 65 0 51 -3 65 -15 65 -9 0 -15
-9 -15 -25 0 -18 -5 -25 -20 -25 -15 0 -20 7 -20 25 0 16 -6 25 -15 25 -12 0
-15 -14 -15 -65z"/>
<path d="M456 995 c-26 -27 -29 -56 -8 -84 42 -57 122 -28 122 44 0 44 -81 72
-114 40z m68 -21 c9 -8 16 -22 16 -29 0 -14 -26 -45 -37 -45 -12 0 -43 33 -43
46 0 14 27 44 40 44 5 0 16 -7 24 -16z"/>
<path d="M700 945 c0 -51 3 -65 15 -65 10 0 15 10 15 28 l1 27 17 -27 c9 -16
25 -28 35 -28 17 0 17 2 -3 30 -12 17 -17 30 -11 30 16 0 24 40 11 55 -7 8
-28 15 -46 15 l-34 0 0 -65z m55 25 c0 -7 -6 -15 -12 -17 -8 -3 -13 4 -13 17
0 13 5 20 13 18 6 -3 12 -11 12 -18z"/>
<path d="M930 945 c0 -51 3 -65 15 -65 12 0 15 14 15 65 0 51 -3 65 -15 65
-12 0 -15 -14 -15 -65z"/>
<path d="M1100 996 c0 -9 7 -13 20 -11 26 5 25 -8 -6 -61 l-26 -44 51 0 c39 0
51 4 51 15 0 9 -9 15 -25 15 -31 0 -31 3 0 57 l26 43 -46 0 c-32 0 -45 -4 -45
-14z"/>
<path d="M1336 988 c-9 -12 -16 -33 -16 -45 0 -53 78 -84 113 -45 22 25 21 75
-1 95 -27 25 -78 22 -96 -5z m72 -10 c32 -32 1 -89 -37 -68 -33 17 -22 80 14
80 6 0 16 -5 23 -12z"/>
<path d="M1585 945 c0 -74 22 -93 27 -23 l3 42 29 -42 c42 -61 56 -56 56 23 0
50 -3 65 -14 65 -10 0 -16 -13 -18 -37 l-3 -37 -25 37 c-39 58 -55 49 -55 -28z"/>
<path d="M905 525 c0 -373 5 -353 -92 -364 -67 -7 -72 -21 -14 -38 45 -13 202
-20 219 -9 24 15 -16 86 -49 86 -10 0 -21 5 -24 10 -4 6 8 10 29 10 33 0 36 3
36 28 0 37 -20 439 -26 530 l-6 72 -36 0 -37 0 0 -325z"/>
<path d="M1090 810 c0 -22 5 -30 18 -29 10 0 12 3 5 6 -7 2 -13 13 -13 23 0
10 6 21 13 23 7 3 5 6 -5 6 -13 1 -18 -7 -18 -29z"/>
<path d="M1174 825 c-10 -24 4 -45 28 -44 l23 2 -22 4 c-14 3 -23 12 -23 23 0
11 9 20 23 23 l22 4 -23 2 c-12 0 -25 -6 -28 -14z"/>
<path d="M1264 826 c-10 -26 4 -48 28 -44 17 2 23 10 23 28 0 18 -6 26 -23 28
-13 2 -25 -3 -28 -12z m46 -16 c0 -13 -7 -20 -20 -20 -13 0 -20 7 -20 20 0 13
7 20 20 20 13 0 20 -7 20 -20z"/>
<path d="M1090 705 c0 -35 15 -46 37 -24 16 16 3 59 -18 59 -15 0 -19 -7 -19
-35z"/>
<path d="M1170 716 c0 -33 25 -53 45 -36 17 14 21 60 5 60 -5 0 -10 -11 -10
-25 0 -14 -4 -25 -10 -25 -5 0 -10 11 -10 25 0 14 -4 25 -10 25 -5 0 -10 -11
-10 -24z"/>
<path d="M1273 705 c0 -22 2 -30 4 -17 2 12 2 30 0 40 -3 9 -5 -1 -4 -23z"/>
<path d="M1331 708 c-1 -28 3 -38 14 -38 8 0 15 5 15 10 0 6 -4 10 -9 10 -5 0
-12 12 -14 28 -3 22 -4 20 -6 -10z"/>
<path d="M1400 706 c0 -29 4 -36 19 -36 10 0 24 7 32 16 16 20 1 48 -30 52
-18 3 -21 -1 -21 -32z m40 -2 c0 -8 -4 -14 -10 -14 -5 0 -10 9 -10 21 0 11 5
17 10 14 6 -3 10 -13 10 -21z"/>
<path d="M1500 705 c0 -28 4 -35 20 -35 25 0 27 20 3 21 -15 0 -15 2 2 9 17 7
17 9 3 9 -10 1 -18 5 -18 10 0 5 8 12 18 14 13 4 11 5 -5 6 -20 1 -23 -4 -23
-34z"/>
<path d="M1580 703 c0 -25 3 -33 9 -24 6 9 11 10 15 2 4 -6 12 -11 17 -11 6 0
7 6 2 13 -4 6 -6 22 -4 35 2 17 -3 22 -18 22 -18 0 -21 -6 -21 -37z m30 17 c0
-5 -4 -10 -10 -10 -5 0 -10 5 -10 10 0 6 5 10 10 10 6 0 10 -4 10 -10z"/>
<path d="M1670 727 c0 -7 5 -18 12 -25 9 -9 9 -12 0 -12 -7 0 -12 -4 -12 -10
0 -16 30 -11 37 6 4 10 -1 20 -13 27 -17 10 -17 11 1 18 19 7 18 8 -2 8 -13 1
-23 -5 -23 -12z"/>
<path d="M1098 200 c36 -15 26 -29 -14 -20 -31 7 -36 5 -44 -13 -5 -15 -3 -28
8 -40 10 -11 18 -14 20 -8 2 6 15 11 28 11 17 0 23 -4 18 -12 -5 -10 -4 -10 6
-1 10 9 10 16 2 26 -8 10 -9 16 0 25 16 16 2 42 -24 41 l-23 0 23 -9z"/>
<path d="M464 1764 c-18 -14 -18 -15 4 -4 12 6 22 13 22 15 0 8 -5 6 -26 -11z"/>
<path d="M1410 1776 c0 -3 9 -10 20 -16 11 -6 20 -8 20 -6 0 3 -9 10 -20 16
-11 6 -20 8 -20 6z"/>
<path d="M370 1699 l-35 -30 38 26 c33 24 43 35 34 35 -1 0 -18 -14 -37 -31z"/>
<path d="M1525 1698 c22 -18 61 -51 86 -73 40 -35 39 -33 -6 11 -29 28 -68 61
-86 73 -28 19 -27 17 6 -11z"/>
<path d="M267 1611 c-30 -33 -65 -75 -77 -93 -17 -26 -15 -25 12 7 18 22 55
64 82 93 27 28 46 52 44 52 -3 0 -31 -27 -61 -59z"/>
<path d="M1675 1550 c10 -11 20 -20 23 -20 3 0 -3 9 -13 20 -10 11 -20 20 -23
20 -3 0 3 -9 13 -20z"/>
<path d="M1700 1516 c0 -2 8 -10 18 -17 15 -13 16 -12 3 4 -13 16 -21 21 -21
13z"/>
<path d="M130 1430 c-6 -11 -8 -20 -6 -20 3 0 10 9 16 20 6 11 8 20 6 20 -3 0
-10 -9 -16 -20z"/>
<path d="M1765 1420 c9 -16 18 -30 21 -30 2 0 -2 14 -11 30 -9 17 -18 30 -21
30 -2 0 2 -13 11 -30z"/>
<path d="M1810 1335 c0 -5 5 -17 10 -25 5 -8 10 -10 10 -5 0 6 -5 17 -10 25
-5 8 -10 11 -10 5z"/>
<path d="M21 1144 c0 -11 3 -14 6 -6 3 7 2 16 -1 19 -3 4 -6 -2 -5 -13z"/>
<path d="M1871 1144 c0 -11 3 -14 6 -6 3 7 2 16 -1 19 -3 4 -6 -2 -5 -13z"/>
<path d="M11 1094 c0 -11 3 -14 6 -6 3 7 2 16 -1 19 -3 4 -6 -2 -5 -13z"/>
<path d="M1882 1090 c0 -14 2 -19 5 -12 2 6 2 18 0 25 -3 6 -5 1 -5 -13z"/>
<path d="M3 950 c0 -47 2 -66 4 -42 2 23 2 61 0 85 -2 23 -4 4 -4 -43z"/>
<path d="M1893 950 c0 -41 2 -58 4 -37 2 20 2 54 0 75 -2 20 -4 3 -4 -38z"/>
<path d="M1882 810 c0 -14 2 -19 5 -12 2 6 2 18 0 25 -3 6 -5 1 -5 -13z"/>
<path d="M11 804 c0 -11 3 -14 6 -6 3 7 2 16 -1 19 -3 4 -6 -2 -5 -13z"/>
<path d="M1871 754 c0 -11 3 -14 6 -6 3 7 2 16 -1 19 -3 4 -6 -2 -5 -13z"/>
<path d="M1770 490 c-6 -11 -8 -20 -6 -20 3 0 10 9 16 20 6 11 8 20 6 20 -3 0
-10 -9 -16 -20z"/>
<path d="M130 470 c6 -11 13 -20 16 -20 2 0 0 9 -6 20 -6 11 -13 20 -16 20 -2
0 0 -9 6 -20z"/>
<path d="M1725 418 c-15 -24 -35 -52 -44 -64 -9 -11 -2 -6 14 12 29 31 70 94
62 94 -2 0 -17 -19 -32 -42z"/>
<path d="M189 382 c11 -16 28 -35 38 -43 9 -8 2 5 -17 29 -38 48 -52 57 -21
14z"/>
<path d="M275 280 c21 -22 41 -40 44 -40 3 0 -13 18 -34 40 -21 22 -41 40 -44
40 -3 0 13 -18 34 -40z"/>
<path d="M1600 268 c-30 -27 -79 -66 -107 -86 -58 -38 -71 -54 -22 -25 49 29
207 165 187 163 -2 -1 -28 -24 -58 -52z"/>
<path d="M345 220 c10 -11 20 -20 23 -20 3 0 -3 9 -13 20 -10 11 -20 20 -23
20 -3 0 3 -9 13 -20z"/>
<path d="M380 196 c0 -2 8 -10 18 -17 15 -13 16 -12 3 4 -13 16 -21 21 -21 13z"/>
<path d="M435 155 c22 -18 86 -53 70 -38 -5 6 -28 20 -50 32 -22 13 -31 15
-20 6z"/>
<path d="M1404 124 c-18 -14 -18 -15 4 -4 12 6 22 13 22 15 0 8 -5 6 -26 -11z"/>
<path d="M570 80 c8 -5 20 -10 25 -10 6 0 3 5 -5 10 -8 5 -19 10 -25 10 -5 0
-3 -5 5 -10z"/>
<path d="M748 23 c7 -3 16 -2 19 1 4 3 -2 6 -13 5 -11 0 -14 -3 -6 -6z"/>
<path d="M1138 23 c7 -3 16 -2 19 1 4 3 -2 6 -13 5 -11 0 -14 -3 -6 -6z"/>
<path d="M798 13 c6 -2 18 -2 25 0 6 3 1 5 -13 5 -14 0 -19 -2 -12 -5z"/>
<path d="M1078 13 c6 -2 18 -2 25 0 6 3 1 5 -13 5 -14 0 -19 -2 -12 -5z"/>
<path d="M913 3 c20 -2 54 -2 75 0 20 2 3 4 -38 4 -41 0 -58 -2 -37 -4z"/>
</g>
</svg>
