<?xml version="1.0" standalone="no"?>
<!DOCTYPE svg PUBLIC "-//W3C//DTD SVG 20010904//EN"
 "http://www.w3.org/TR/2001/REC-SVG-20010904/DTD/svg10.dtd">
<svg version="1.0" xmlns="http://www.w3.org/2000/svg"
 width="822.000000pt" height="232.000000pt" viewBox="0 0 822.000000 232.000000"
 preserveAspectRatio="xMidYMid meet">

<g transform="translate(0.000000,232.000000) scale(0.100000,-0.100000)"
fill="#000000" stroke="none">
<path d="M1108 2313 c28 -2 76 -2 105 0 28 2 5 3 -53 3 -58 0 -81 -1 -52 -3z"/>
<path d="M993 2303 c9 -2 23 -2 30 0 6 3 -1 5 -18 5 -16 0 -22 -2 -12 -5z"/>
<path d="M1313 2303 c9 -2 23 -2 30 0 6 3 -1 5 -18 5 -16 0 -22 -2 -12 -5z"/>
<path d="M928 2293 c6 -2 18 -2 25 0 6 3 1 5 -13 5 -14 0 -19 -2 -12 -5z"/>
<path d="M1378 2293 c7 -3 16 -2 19 1 4 3 -2 6 -13 5 -11 0 -14 -3 -6 -6z"/>
<path d="M888 2283 c7 -3 16 -2 19 1 4 3 -2 6 -13 5 -11 0 -14 -3 -6 -6z"/>
<path d="M1428 2283 c7 -3 16 -2 19 1 4 3 -2 6 -13 5 -11 0 -14 -3 -6 -6z"/>
<path d="M825 2270 c-13 -5 -14 -9 -5 -9 8 0 24 4 35 9 13 5 14 9 5 9 -8 0
-24 -4 -35 -9z"/>
<path d="M973 2256 c-151 -29 -299 -89 -418 -171 -38 -26 -75 -48 -82 -48 -7
0 -10 -4 -8 -8 6 -9 -70 -70 -79 -64 -3 3 -4 2 -2 -1 3 -3 -26 -42 -64 -86
-108 -128 -184 -274 -233 -452 -19 -70 -22 -106 -22 -266 0 -172 2 -192 28
-284 47 -169 121 -309 233 -441 32 -38 58 -71 57 -72 -2 -2 -2 -2 0 0 6 5 87
-65 82 -72 -2 -4 1 -8 8 -8 7 0 49 -26 95 -56 162 -108 340 -165 543 -174 155
-7 259 7 399 53 327 108 593 374 706 708 30 88 54 213 54 282 l0 54 2975 0
c1977 0 2975 3 2975 10 0 7 -998 10 -2975 10 l-2975 0 0 53 c0 119 -44 286
-110 420 -151 303 -423 522 -750 602 -90 23 -343 29 -437 11z m350 -11 c371
-56 677 -286 838 -630 49 -104 88 -251 96 -362 l6 -83 -1052 0 c-694 0 -1051
-3 -1051 -10 0 -7 357 -10 1051 -10 l1052 0 -6 -82 c-27 -371 -271 -729 -610
-893 -435 -210 -944 -119 -1274 228 -322 339 -396 834 -188 1247 161 320 461
540 810 594 120 19 210 19 328 1z"/>
<path d="M1161 2194 c-18 -13 -48 -26 -67 -30 -32 -6 -49 -34 -21 -34 19 -1
-24 -30 -44 -30 -10 0 -21 -5 -25 -12 -10 -17 27 -40 58 -35 15 2 25 0 22 -5
-3 -4 3 -11 13 -14 10 -3 34 -14 54 -25 20 -10 48 -19 62 -19 31 0 44 -15 21
-24 -9 -4 -37 5 -62 19 -52 29 -132 45 -132 26 0 -6 -4 -11 -10 -11 -5 0 -10
7 -10 15 0 8 -6 15 -13 15 -8 0 -14 -7 -14 -15 0 -15 31 -28 58 -25 27 4 40 0
34 -10 -4 -7 3 -7 20 0 20 8 35 5 66 -10 22 -12 46 -19 54 -18 17 4 18 -4 10
-42 -5 -25 -12 -30 -35 -30 -15 0 -33 7 -40 15 -7 8 -19 15 -26 15 -8 0 -14 4
-14 10 0 5 -7 7 -15 4 -21 -8 -19 -24 3 -25 10 0 12 -3 4 -6 -7 -3 -25 0 -41
5 -15 6 -34 7 -41 2 -7 -5 1 -10 24 -14 59 -11 31 -25 -39 -20 -67 5 -80 -2
-45 -24 11 -7 20 -16 20 -21 0 -10 -39 -3 -56 10 -6 5 -14 6 -17 2 -4 -3 10
-19 31 -34 32 -25 46 -28 102 -28 45 0 59 3 45 9 -19 8 -19 9 3 9 12 1 22 -3
22 -9 0 -5 6 -10 13 -10 7 0 34 -13 60 -29 57 -37 73 -82 56 -160 -9 -43 -19
-58 -59 -92 -54 -46 -65 -75 -74 -206 l-5 -73 50 0 c56 0 53 -6 49 109 -2 71
0 79 41 158 34 66 55 93 103 131 32 26 65 62 72 79 9 21 29 40 54 53 30 15 42
29 46 50 10 46 36 63 96 62 49 -1 154 14 116 17 -30 2 -20 19 15 27 28 6 29 8
12 14 -11 5 -30 6 -42 3 -25 -6 -32 12 -8 21 25 9 17 22 -12 20 -16 -1 -28 -3
-28 -5 0 -1 -19 -3 -42 -4 -50 -2 -55 6 -13 22 40 15 38 30 -7 42 -79 20 -124
17 -160 -12 -20 -16 -39 -22 -68 -21 -22 2 -58 3 -80 4 -22 1 -34 4 -28 7 9 3
10 10 3 23 -12 23 10 43 35 33 13 -4 16 -3 11 6 -5 7 -17 11 -27 8 -12 -3 -19
0 -19 9 0 8 4 14 9 14 17 0 61 -27 54 -33 -3 -4 17 -7 46 -7 59 0 121 24 121
47 0 13 -3 13 -15 3 -13 -11 -18 -8 -17 10 1 8 -97 5 -105 -3 -13 -14 -25 -7
-13 8 7 8 22 15 34 15 12 0 31 7 42 15 19 14 19 14 -2 15 -12 0 -27 6 -33 14
-7 8 -24 17 -39 21 -15 4 -30 12 -34 18 -5 9 -10 9 -19 0 -12 -12 -39 -7 -50
10 -4 5 -14 5 -26 -1 -11 -6 -24 -7 -29 -3 -5 4 -24 -2 -43 -15z m64 -64 c3
-5 4 -10 1 -10 -2 0 -12 -3 -20 -6 -12 -5 -15 -2 -10 10 7 18 20 21 29 6z m32
-87 c-3 -3 -11 -2 -17 2 -8 5 -7 11 2 22 12 15 13 14 16 -1 2 -10 1 -20 -1
-23z m-47 9 c0 -5 11 -14 25 -20 14 -6 25 -16 25 -22 0 -15 -57 -12 -90 5 -41
21 -39 38 3 30 24 -5 28 -4 17 4 -13 9 -13 11 3 11 9 0 17 -4 17 -8z m108 -94
c-7 -20 -48 -23 -48 -4 0 11 9 16 26 16 16 0 24 -5 22 -12z m236 -10 c-7 -10
-35 -10 -51 0 -8 5 1 8 22 8 18 0 31 -4 29 -8z m-157 -24 c2 -5 -14 -9 -38 -7
-35 2 -46 -3 -73 -30 l-31 -32 35 -5 c31 -4 35 -9 38 -40 2 -19 17 -53 33 -76
16 -24 29 -49 29 -57 0 -13 -85 -87 -100 -87 -10 0 -23 157 -15 170 3 5 15 10
26 10 27 0 24 34 -5 49 -13 8 -29 10 -35 7 -17 -11 -17 71 0 88 27 29 127 36
136 10z m228 -34 c-3 -5 -13 -10 -21 -10 -8 0 -12 5 -9 10 3 6 13 10 21 10 8
0 12 -4 9 -10z m-424 -20 c10 0 19 -5 19 -10 0 -12 -50 -2 -65 13 -7 7 -4 8 8
3 10 -3 27 -6 38 -6z m265 -6 c-3 -9 -6 -20 -6 -26 0 -5 -10 -8 -22 -6 -28 4
-26 22 2 26 11 2 18 8 15 13 -4 5 -1 9 5 9 7 0 9 -7 6 -16z m54 1 c0 -8 -9
-15 -20 -15 -20 0 -26 11 -13 23 12 13 33 7 33 -8z m50 1 c0 -2 -7 -6 -15 -10
-8 -3 -15 -1 -15 4 0 6 7 10 15 10 8 0 15 -2 15 -4z m-440 -26 c0 -5 -2 -10
-4 -10 -3 0 -8 5 -11 10 -3 6 -1 10 4 10 6 0 11 -4 11 -10z m230 6 c0 -3 -4
-8 -10 -11 -5 -3 -10 -1 -10 4 0 6 5 11 10 11 6 0 10 -2 10 -4z m-310 -16 c0
-5 -4 -10 -10 -10 -5 0 -10 5 -10 10 0 6 5 10 10 10 6 0 10 -4 10 -10z m368
-6 c39 -19 42 -49 10 -89 l-22 -28 -28 34 c-30 35 -36 67 -16 87 15 15 19 15
56 -4z m96 -11 c-7 -29 -31 -63 -45 -63 -8 0 -4 44 7 78 2 6 13 12 24 12 17 0
19 -4 14 -27z m-336 -31 c3 -9 -2 -13 -14 -10 -9 1 -19 9 -22 16 -3 9 2 13 14
10 9 -1 19 -9 22 -16z m37 8 c3 -5 -1 -10 -10 -10 -9 0 -13 5 -10 10 3 6 8 10
10 10 2 0 7 -4 10 -10z m35 -41 c0 -22 -4 -23 -31 -9 -24 13 -25 27 -1 33 24
5 32 -1 32 -24z"/>
<path d="M1343 2013 c-15 -12 -14 -13 8 -13 43 0 99 12 99 21 0 13 -86 6 -107
-8z"/>
<path d="M1565 1824 c11 -3 36 -11 55 -18 36 -14 100 -10 100 5 0 5 -17 9 -39
9 -21 0 -60 2 -87 5 -27 2 -40 2 -29 -1z"/>
<path d="M1115 998 c3 -62 7 -149 9 -193 2 -44 1 -180 -2 -302 -8 -265 -4
-254 -119 -262 -90 -7 -104 -25 -38 -48 49 -18 275 -33 293 -20 15 12 15 38 1
70 -11 24 -21 31 -79 55 -22 10 -20 11 23 11 l47 1 0 73 c0 39 -4 135 -9 212
-6 77 -13 224 -17 328 l-7 187 -54 0 -53 0 5 -112z"/>
<path d="M1345 291 c3 -6 15 -11 25 -11 10 0 21 -8 24 -17 3 -11 4 -7 3 7 -2
20 -8 26 -31 28 -18 2 -26 0 -21 -7z"/>
<path d="M1290 245 c-15 -40 14 -76 60 -74 23 1 23 2 -5 9 -28 7 -27 8 13 9
30 1 42 5 42 16 0 8 -4 15 -10 15 -5 0 -10 9 -10 20 0 14 -7 20 -24 20 -13 0
-31 3 -40 6 -11 4 -19 -2 -26 -21z"/>
<path d="M1520 2255 c46 -18 64 -17 25 0 -16 8 -37 14 -45 14 -8 0 1 -7 20
-14z"/>
<path d="M755 2245 c-25 -12 -26 -14 -5 -9 28 7 60 23 45 23 -5 0 -23 -6 -40
-14z"/>
<path d="M1590 2230 c8 -5 20 -10 25 -10 6 0 3 5 -5 10 -8 5 -19 10 -25 10 -5
0 -3 -5 5 -10z"/>
<path d="M638 2194 c-27 -13 -48 -27 -48 -29 0 -5 99 42 109 51 13 11 -20 0
-61 -22z"/>
<path d="M1651 2206 c10 -9 69 -36 69 -32 0 6 -55 36 -66 36 -4 0 -5 -2 -3 -4z"/>
<path d="M1841 2094 c35 -25 98 -78 139 -118 l75 -71 -65 68 c-60 63 -188 167
-205 167 -4 0 21 -21 56 -46z"/>
<path d="M463 2084 l-28 -25 33 22 c17 13 32 24 32 26 0 8 -11 1 -37 -23z"/>
<path d="M345 1978 l-80 -83 83 80 c76 74 87 85 79 85 -1 0 -38 -37 -82 -82z"/>
<path d="M2080 1863 c18 -24 35 -43 37 -43 7 0 -35 56 -54 71 -9 8 -2 -5 17
-28z"/>
<path d="M249 1873 c-29 -35 -41 -53 -36 -53 2 0 17 16 31 35 28 36 31 49 5
18z"/>
<path d="M2827 1873 c-4 -3 -7 -102 -7 -220 l0 -213 50 0 50 0 0 85 0 85 75 0
75 0 0 -85 0 -85 50 0 50 0 0 221 0 220 -47 -3 -48 -3 -3 -82 -3 -83 -74 0
-75 0 0 85 0 85 -43 0 c-24 0 -47 -3 -50 -7z"/>
<path d="M3732 1859 c-154 -77 -163 -309 -14 -396 38 -23 59 -28 112 -28 124
0 210 79 218 199 5 77 -9 126 -51 173 -64 72 -178 95 -265 52z m166 -85 c50
-35 69 -133 37 -194 -43 -84 -165 -78 -210 10 -30 57 -11 151 36 184 30 20
108 21 137 0z"/>
<path d="M4500 1660 l0 -220 45 0 44 0 3 88 3 87 59 -87 59 -88 54 0 c41 0 52
3 47 13 -4 6 -29 44 -56 84 -26 40 -48 75 -48 78 0 3 14 18 32 34 27 24 32 36
36 87 4 54 1 63 -23 92 -32 39 -77 52 -177 52 l-78 0 0 -220z m177 113 c7 -9
13 -22 13 -29 0 -24 -36 -55 -65 -57 -30 -2 -30 -2 -33 57 l-3 59 38 -6 c21
-4 44 -14 50 -24z"/>
<path d="M5260 1660 l0 -220 45 0 45 0 0 220 0 220 -45 0 -45 0 0 -220z"/>
<path d="M5810 1835 l0 -45 85 0 c47 0 85 -2 85 -5 0 -3 -38 -71 -83 -153 -46
-81 -89 -157 -96 -169 l-12 -23 166 0 165 0 0 45 0 45 -90 0 c-49 0 -90 3 -90
6 0 6 101 187 167 302 l25 42 -161 0 -161 0 0 -45z"/>
<path d="M6685 1861 c-81 -37 -125 -111 -125 -208 0 -177 182 -278 337 -187
109 63 135 236 52 337 -60 73 -177 98 -264 58z m165 -91 c36 -25 54 -79 47
-138 -10 -89 -99 -137 -177 -97 -77 40 -82 188 -8 239 32 23 104 20 138 -4z"/>
<path d="M7440 1661 l0 -221 45 0 45 0 0 135 c0 74 3 135 8 135 4 -1 50 -61
102 -135 l94 -135 48 0 48 0 0 220 0 220 -45 0 -44 0 -3 -142 -3 -142 -101
139 -100 140 -47 3 -47 3 0 -220z"/>
<path d="M2129 1795 c5 -11 17 -29 26 -40 l16 -20 -10 20 c-5 11 -17 29 -26
40 l-16 20 10 -20z"/>
<path d="M168 1758 c-23 -34 -70 -130 -66 -133 2 -2 22 32 45 76 41 78 49 100
21 57z"/>
<path d="M2191 1690 c14 -31 19 -36 19 -24 0 6 -7 19 -16 30 -14 18 -14 18 -3
-6z"/>
<path d="M2261 1520 c0 -8 4 -22 9 -30 12 -18 12 -2 0 25 -6 13 -9 15 -9 5z"/>
<path d="M31 1414 c0 -11 3 -14 6 -6 3 7 2 16 -1 19 -3 4 -6 -2 -5 -13z"/>
<path d="M21 1374 c0 -11 3 -14 6 -6 3 7 2 16 -1 19 -3 4 -6 -2 -5 -13z"/>
<path d="M2300 1326 c0 -8 4 -17 9 -20 5 -4 7 3 4 14 -6 23 -13 26 -13 6z"/>
<path d="M11 1304 c0 -11 3 -14 6 -6 3 7 2 16 -1 19 -3 4 -6 -2 -5 -13z"/>
<path d="M2313 1220 c0 -25 2 -35 4 -22 2 12 2 32 0 45 -2 12 -4 2 -4 -23z"/>
<path d="M4 1160 c0 -52 1 -74 3 -47 2 26 2 68 0 95 -2 26 -3 4 -3 -48z"/>
<path d="M2313 1100 c0 -25 2 -35 4 -22 2 12 2 32 0 45 -2 12 -4 2 -4 -23z"/>
<path d="M12 1010 c0 -14 2 -19 5 -12 2 6 2 18 0 25 -3 6 -5 1 -5 -13z"/>
<path d="M2304 1005 c-3 -8 -4 -20 -2 -27 3 -7 7 -1 10 15 6 29 1 36 -8 12z"/>
<path d="M21 944 c0 -11 3 -14 6 -6 3 7 2 16 -1 19 -3 4 -6 -2 -5 -13z"/>
<path d="M2291 934 c0 -11 3 -14 6 -6 3 7 2 16 -1 19 -3 4 -6 -2 -5 -13z"/>
<path d="M2261 809 c-6 -18 -11 -37 -10 -43 0 -6 7 7 15 28 8 22 12 41 10 43
-2 2 -9 -10 -15 -28z"/>
<path d="M7180 833 c-32 -12 -50 -37 -50 -68 0 -36 24 -62 87 -94 49 -24 63
-54 37 -82 -23 -26 -47 -24 -83 7 -23 19 -35 23 -48 16 -15 -9 -13 -14 19 -46
47 -47 96 -50 139 -7 52 53 31 111 -55 155 -62 32 -73 59 -31 78 19 9 31 8 49
-2 14 -7 33 -10 42 -6 16 6 16 8 -2 27 -21 20 -78 33 -104 22z"/>
<path d="M4710 685 l0 -145 44 0 c82 0 126 30 126 85 0 24 -7 39 -26 54 -25
20 -26 22 -10 39 9 10 16 31 16 45 0 36 -50 67 -107 67 l-43 0 0 -145z m98 93
c18 -18 14 -46 -7 -58 -38 -20 -51 -13 -51 30 0 35 3 40 23 40 13 0 28 -5 35
-12z m20 -120 c33 -33 2 -78 -52 -78 -24 0 -26 3 -26 45 0 44 1 45 33 45 18 0
38 -5 45 -12z"/>
<path d="M5070 714 l0 -116 34 -34 c38 -38 85 -45 135 -20 41 22 51 55 51 176
0 103 -1 110 -20 110 -19 0 -20 -7 -20 -113 0 -128 -9 -147 -68 -147 -60 0
-72 25 -72 150 0 103 -1 110 -20 110 -19 0 -20 -7 -20 -116z"/>
<path d="M5480 685 c0 -138 1 -145 20 -145 19 0 20 7 20 145 0 138 -1 145 -20
145 -19 0 -20 -7 -20 -145z"/>
<path d="M5720 686 l0 -146 65 0 c58 0 65 2 65 20 0 17 -7 20 -45 20 l-44 0
-3 122 c-3 108 -5 123 -20 126 -17 3 -18 -9 -18 -142z"/>
<path d="M6020 685 l0 -145 55 0 c69 0 113 18 148 59 22 27 27 42 27 86 0 92
-64 145 -175 145 l-55 0 0 -145z m133 94 c51 -26 74 -99 47 -150 -15 -26 -62
-49 -105 -49 l-35 0 0 105 0 105 36 0 c19 0 45 -5 57 -11z"/>
<path d="M6426 822 c-3 -5 -4 -69 -3 -143 l2 -134 83 -3 c76 -3 83 -1 80 15
-3 15 -15 19 -66 21 l-63 3 3 47 3 47 63 3 c53 3 63 6 60 20 -3 13 -16 18 -66
20 l-62 3 0 34 0 35 65 0 c58 0 65 2 65 20 0 18 -7 20 -79 20 -44 0 -82 -4
-85 -8z"/>
<path d="M6770 685 c0 -137 1 -145 20 -145 16 0 19 8 22 62 l3 63 40 -63 c30
-46 46 -62 63 -62 22 0 21 3 -18 60 l-40 59 28 15 c16 8 35 28 41 44 25 61
-26 112 -114 112 l-45 0 0 -145z m108 93 c16 -16 15 -53 -1 -66 -6 -6 -24 -13
-40 -17 -27 -7 -27 -7 -27 44 0 49 1 51 28 51 15 0 33 -5 40 -12z"/>
<path d="M3372 750 c0 -19 2 -27 5 -17 2 9 2 25 0 35 -3 9 -5 1 -5 -18z"/>
<path d="M100 696 c0 -11 57 -119 74 -141 9 -11 -3 16 -26 60 -45 86 -48 92
-48 81z"/>
<path d="M3373 625 c0 -27 2 -38 4 -22 2 15 2 37 0 50 -2 12 -4 0 -4 -28z"/>
<path d="M2191 633 c-10 -26 -10 -27 4 -9 8 11 15 23 15 28 0 15 -7 8 -19 -19z"/>
<path d="M2154 568 c-4 -7 -14 -24 -22 -38 -14 -24 -13 -24 3 -5 20 24 37 55
31 55 -3 0 -8 -6 -12 -12z"/>
<path d="M230 470 c11 -16 26 -33 32 -36 7 -4 -1 9 -16 29 -34 44 -46 50 -16
7z"/>
<path d="M2080 458 c-19 -24 -26 -37 -17 -29 19 15 61 71 54 71 -2 0 -19 -19
-37 -42z"/>
<path d="M345 340 c44 -44 82 -80 85 -80 2 0 -31 36 -75 80 -44 44 -82 80 -85
80 -2 0 31 -36 75 -80z"/>
<path d="M1990 354 c-30 -31 -90 -83 -133 -115 -43 -33 -76 -59 -72 -59 16 0
144 103 205 164 35 36 62 66 59 66 -2 0 -29 -25 -59 -56z"/>
<path d="M449 246 c13 -16 51 -41 51 -33 0 2 -15 14 -32 27 -21 15 -28 17 -19
6z"/>
<path d="M590 155 c0 -7 101 -57 106 -53 2 2 -21 16 -51 31 -30 15 -55 25 -55
22z"/>
<path d="M1680 130 c-19 -11 -31 -19 -27 -20 11 0 67 29 67 35 0 7 -1 7 -40
-15z"/>
<path d="M1590 90 c-8 -5 -10 -10 -5 -10 6 0 17 5 25 10 8 5 11 10 5 10 -5 0
-17 -5 -25 -10z"/>
<path d="M730 87 c0 -6 120 -47 134 -46 6 0 -11 8 -39 18 -76 27 -95 33 -95
28z"/>
<path d="M1520 65 c-19 -7 -28 -14 -20 -14 8 0 29 6 45 14 39 17 21 18 -25 0z"/>
<path d="M888 33 c7 -3 16 -2 19 1 4 3 -2 6 -13 5 -11 0 -14 -3 -6 -6z"/>
<path d="M1418 33 c7 -3 16 -2 19 1 4 3 -2 6 -13 5 -11 0 -14 -3 -6 -6z"/>
<path d="M928 23 c6 -2 18 -2 25 0 6 3 1 5 -13 5 -14 0 -19 -2 -12 -5z"/>
<path d="M1378 23 c7 -3 16 -2 19 1 4 3 -2 6 -13 5 -11 0 -14 -3 -6 -6z"/>
<path d="M993 13 c9 -2 23 -2 30 0 6 3 -1 5 -18 5 -16 0 -22 -2 -12 -5z"/>
<path d="M1313 13 c9 -2 23 -2 30 0 6 3 -1 5 -18 5 -16 0 -22 -2 -12 -5z"/>
<path d="M1113 3 c32 -2 81 -2 110 0 29 2 3 3 -58 3 -60 0 -84 -1 -52 -3z"/>
</g>
</svg>
